<svg width="32" height="32" viewBox="0 0 32 32" fill="none" xmlns="http://www.w3.org/2000/svg">
<rect width="32" height="32" fill="white"/>
<path d="M3 18.8612V12.5705H4.34245L6.72482 16.3079L7.16916 17.1683L7.12189 12.5705H8.38871V18.8612H7.05571L4.67333 15.133L4.21955 14.2542L4.27627 18.8612H3Z" fill="black" fill-opacity="0.88"/>
<path d="M10.964 18.8612V13.5974H8.89365V12.5705H14.3107V13.5974H12.2403V18.8612H10.964Z" fill="black" fill-opacity="0.88"/>
<path d="M14.805 18.8612V12.5705H16.0813V15.1238H18.9269V12.5705H20.1937V18.8612H18.9269V16.1414H16.0813V18.8612H14.805Z" fill="black" fill-opacity="0.88"/>
<path d="M26.6452 18.8612H25.7565L25.6525 18.0656C25.2554 18.704 24.5842 19 23.7901 19C22.0222 19 20.8594 17.7604 20.8594 15.7251C20.8594 13.6991 22.0222 12.4317 23.9035 12.4317C25.2365 12.4317 26.3615 13.1441 26.6546 14.5132H25.3216C25.1231 13.8379 24.5842 13.4678 23.8657 13.4678C22.788 13.4678 22.164 14.3189 22.164 15.7251C22.164 17.1313 22.8163 17.9639 23.913 17.9639C24.7071 17.9639 25.35 17.5198 25.4351 16.4744H24.0453V15.5308H26.6452V18.8612Z" fill="black" fill-opacity="0.88"/>
<path d="M27.1363 13.5727V12.293H26.636V12H28.0029V12.293H27.5026V13.5727H27.1363ZM28.1959 13.5727V12H28.6765L29.0389 12.9482L29.1058 13.1795L29.1688 12.9482L29.5312 12H30V13.5727H29.6376L29.6573 12.397L29.5352 12.7863L29.2279 13.5727H28.968L28.6568 12.7786L28.5386 12.4047L28.5583 13.5727H28.1959Z" fill="black" fill-opacity="0.88"/>
</svg>
