<svg width="116" height="40" viewBox="0 0 116 40" fill="none" xmlns="http://www.w3.org/2000/svg">
<g clip-path="url(#clip0_38230_23365)">
<path d="M2.51 30.375V9.975H6.77L14.33 22.095L15.74 24.885L15.59 9.975H19.61V30.375H15.38L7.82 18.285L6.38 15.435L6.56 30.375H2.51ZM29.1323 30.825C24.3623 30.825 21.4223 27.615 21.4223 22.365C21.4223 16.905 24.4523 13.845 29.1323 13.845C33.8723 13.845 36.8123 17.085 36.8123 22.365C36.8123 27.765 33.7823 30.825 29.1323 30.825ZM29.1323 27.645C31.5623 27.645 32.8523 25.785 32.8523 22.365C32.8523 18.945 31.5323 17.025 29.1323 17.025C26.6723 17.025 25.3823 18.915 25.3823 22.365C25.3823 25.755 26.7023 27.645 29.1323 27.645ZM38.864 25.365V17.265H36.794V14.295H38.864V10.605H42.704V14.295H46.094V17.265H42.704V25.035C42.704 26.715 43.184 27.615 45.314 27.615H46.034V30.435C45.614 30.645 44.744 30.825 43.694 30.825C40.424 30.825 38.864 28.965 38.864 25.365ZM47.0942 30.375V8.775H50.9342V16.455C51.9842 14.715 53.6642 13.845 55.7042 13.845C58.9142 13.845 61.1042 15.765 61.1042 19.665V30.375H57.2642V20.445C57.2642 18.255 56.3342 17.025 54.3842 17.025C52.2542 17.025 50.9342 18.885 50.9342 21.045V30.375H47.0942ZM63.393 12.495V8.775H67.233V12.495H63.393ZM63.393 30.375V14.295H67.233V30.375H63.393ZM69.4966 30.375V14.295H73.3366V16.455C74.3866 14.715 76.0666 13.845 78.1066 13.845C81.3166 13.845 83.5066 15.765 83.5066 19.665V30.375H79.6666V20.445C79.6666 18.255 78.7366 17.025 76.7866 17.025C74.6566 17.025 73.3366 18.885 73.3366 21.045V30.375H69.4966ZM91.6454 30.435C87.5654 30.435 85.0454 27.285 85.0454 22.155C85.0454 16.815 87.6254 13.845 91.6454 13.845C93.5654 13.845 95.0654 14.565 96.0554 15.915V14.295H99.8954V30.885C99.8954 35.235 96.8954 37.455 92.9054 37.455C88.9454 37.455 86.0654 35.625 85.4954 31.815H89.3654C89.6054 33.525 90.9854 34.425 92.8454 34.425C94.7654 34.425 96.0554 33.495 96.0554 30.945V28.245C95.0054 29.685 93.5054 30.435 91.6454 30.435ZM92.5154 27.255C94.8254 27.255 96.0554 25.455 96.0554 22.155C96.0554 18.885 94.7654 17.025 92.5154 17.025C90.2354 17.025 89.0054 18.825 89.0054 22.155C89.0054 25.425 90.2354 27.255 92.5154 27.255Z" fill="#F6F3F0" fill-opacity="0.88"/>
<path d="M104.775 14.6V10.45H103.188V9.5H107.525V10.45H105.938V14.6H104.775ZM108.138 14.6V9.5H109.663L110.812 12.575L111.025 13.325L111.225 12.575L112.375 9.5H113.863V14.6H112.713L112.775 10.7875L112.388 12.05L111.413 14.6H110.588L109.6 12.025L109.225 10.8125L109.288 14.6H108.138Z" fill="#F6F3F0" fill-opacity="0.88"/>
</g>
<defs>
<clipPath id="clip0_38230_23365">
<rect x="0.5" width="115" height="40" rx="1.25" fill="white"/>
</clipPath>
</defs>
</svg>
