<svg width="122" height="32" viewBox="0 0 122 32" fill="none" xmlns="http://www.w3.org/2000/svg">
<path d="M8.06369 24.9636L-0.000312477 2.56364H3.13569L9.88769 22.0196H9.98369L16.7357 2.56364H19.8077L11.7757 24.9636H8.06369ZM24.2157 25.1236C20.8877 25.1236 18.8717 23.3636 18.8717 20.4836C18.8717 18.3396 20.0237 16.8676 22.1357 16.2596C23.5757 15.8436 25.6237 15.6516 28.1837 15.2356C29.2717 15.0116 29.5597 14.7556 29.5597 13.9236C29.5597 12.0036 28.3757 10.9796 26.1997 10.9796C24.0877 10.9796 22.7437 12.0036 22.4557 13.8276H19.5437C19.8957 10.4996 22.3917 8.54764 26.2637 8.54764C30.2957 8.54764 32.5677 10.7236 32.5677 14.6596V24.9636H29.6877V22.2756H29.5917C28.5037 24.0996 26.5517 25.1236 24.2157 25.1236ZM21.8797 20.3876C21.8797 21.8916 22.9357 22.7236 24.7597 22.7236C27.5757 22.7236 29.5597 20.7396 29.5597 17.9876V17.0276C28.3437 17.5716 24.9837 17.6676 23.7357 18.0196C22.4877 18.4036 21.8797 19.1396 21.8797 20.3876ZM35.2004 24.9636V8.70764H38.0484V11.3956H38.1764C39.2964 9.53964 41.1204 8.54764 43.4244 8.54764C47.1684 8.54764 49.1844 11.0116 49.1844 15.7476V24.9636H46.2084V15.7476C46.2084 12.5476 44.9604 11.0756 42.2724 11.0756C39.5524 11.0756 38.1764 12.6436 38.1764 15.7476V24.9636H35.2004ZM58.0109 24.9636C55.0029 24.9636 53.4349 23.3636 53.4349 20.3876V11.0756H50.2029V8.70764H52.5069C53.1789 8.70764 53.5629 8.32364 53.5629 7.68364V3.90764H56.4109V8.70764H60.8269V11.0756H56.4109V20.5796C56.4109 21.8916 57.1149 22.5956 58.3949 22.5956H60.8269V24.9636H58.0109ZM67.3757 25.1236C64.0477 25.1236 62.0317 23.3636 62.0317 20.4836C62.0317 18.3396 63.1837 16.8676 65.2957 16.2596C66.7357 15.8436 68.7837 15.6516 71.3437 15.2356C72.4317 15.0116 72.7197 14.7556 72.7197 13.9236C72.7197 12.0036 71.5357 10.9796 69.3597 10.9796C67.2477 10.9796 65.9037 12.0036 65.6157 13.8276H62.7037C63.0557 10.4996 65.5517 8.54764 69.4237 8.54764C73.4557 8.54764 75.7277 10.7236 75.7277 14.6596V24.9636H72.8477V22.2756H72.7517C71.6637 24.0996 69.7117 25.1236 67.3757 25.1236ZM65.0397 20.3876C65.0397 21.8916 66.0957 22.7236 67.9197 22.7236C70.7357 22.7236 72.7197 20.7396 72.7197 17.9876V17.0276C71.5037 17.5716 68.1437 17.6676 66.8957 18.0196C65.6477 18.4036 65.0397 19.1396 65.0397 20.3876ZM80.4404 31.0436V28.6756H88.1524C89.4324 28.6756 90.1684 27.9396 90.1684 26.6596V22.1156H90.0404C88.8884 24.0036 86.8404 25.1236 84.5684 25.1236C80.2164 25.1236 77.4004 21.8596 77.4004 16.8036C77.4004 11.7796 80.2164 8.54764 84.5684 8.54764C86.9364 8.54764 89.0804 9.66764 90.1684 11.5236H90.2964V8.70764H93.1444V26.5956C93.1444 29.4756 91.5764 31.0436 88.6964 31.0436H80.4404ZM80.4404 16.8036C80.4404 20.4516 82.3284 22.6916 85.3684 22.6916C88.3764 22.6916 90.2964 20.4196 90.2964 16.8036C90.2964 13.2196 88.4084 10.9796 85.3684 10.9796C82.3284 10.9796 80.4404 13.1876 80.4404 16.8036ZM103.152 25.1236C98.2564 25.1236 95.1204 21.8916 95.1204 16.8676C95.1204 11.7796 98.2564 8.54764 103.152 8.54764C107.696 8.54764 110.48 11.6836 110.48 16.8356V17.8276H98.1924C98.4164 20.8676 100.176 22.6916 103.152 22.6916C105.648 22.6916 107.088 21.6036 107.504 20.0036H110.416C109.904 23.0116 107.248 25.1236 103.152 25.1236ZM98.1924 15.6516H107.6C107.44 12.6756 105.776 10.9796 103.152 10.9796C100.208 10.9796 98.4804 12.6436 98.1924 15.6516ZM118.431 5.01818L116.277 9.71014e-07H117.252L118.704 3.55909L120.149 9.71014e-07H121.124L118.977 5.01818H118.431ZM116.038 5.01818V9.71014e-07H117.04V5.01818H116.038ZM120.361 5.01818V9.71014e-07H121.363V5.01818H120.361ZM112.636 5.01818V0.436364H113.638V5.01818H112.636ZM111.108 0.859092V9.71014e-07H115.165V0.859092H111.108Z" fill="#0A0A0A"/>
</svg>
