<svg width="256" height="256" viewBox="0 0 256 256" fill="none" xmlns="http://www.w3.org/2000/svg">
<rect width="256" height="256" fill="white"/>
<path d="M51 138.849V108.804H57.2741L68.4085 126.655L70.4851 130.764L70.2642 108.804H76.1849V138.849H69.9549L58.8206 121.043L56.6997 116.846L56.9648 138.849H51Z" fill="black" fill-opacity="0.88"/>
<path d="M90.2094 139.512C83.1841 139.512 78.8541 134.784 78.8541 127.052C78.8541 119.011 83.3167 114.504 90.2094 114.504C97.1905 114.504 101.521 119.276 101.521 127.052C101.521 135.005 97.0579 139.512 90.2094 139.512ZM90.2094 134.829C93.7883 134.829 95.6882 132.089 95.6882 127.052C95.6882 122.015 93.7441 119.187 90.2094 119.187C86.5863 119.187 84.6864 121.971 84.6864 127.052C84.6864 132.045 86.6305 134.829 90.2094 134.829Z" fill="black" fill-opacity="0.88"/>
<path d="M104.542 131.471V119.541H101.493V115.167H104.542V109.732H110.198V115.167H115.191V119.541H110.198V130.985C110.198 133.459 110.905 134.784 114.042 134.784H115.102V138.938C114.484 139.247 113.202 139.512 111.656 139.512C106.84 139.512 104.542 136.773 104.542 131.471Z" fill="black" fill-opacity="0.88"/>
<path d="M116.664 138.849V107.037H122.319V118.348C123.866 115.785 126.34 114.504 129.344 114.504C134.072 114.504 137.298 117.332 137.298 123.076V138.849H131.642V124.224C131.642 120.999 130.272 119.187 127.4 119.187C124.263 119.187 122.319 121.927 122.319 125.108V138.849H116.664Z" fill="black" fill-opacity="0.88"/>
<path d="M140.669 112.516V107.037H146.324V112.516H140.669ZM140.669 138.849V115.167H146.324V138.849H140.669Z" fill="black" fill-opacity="0.88"/>
<path d="M149.658 138.849V115.167H155.313V118.348C156.86 115.785 159.334 114.504 162.339 114.504C167.066 114.504 170.292 117.332 170.292 123.076V138.849H164.636V124.224C164.636 120.999 163.267 119.187 160.395 119.187C157.257 119.187 155.313 121.927 155.313 125.108V138.849H149.658Z" fill="black" fill-opacity="0.88"/>
<path d="M182.279 138.938C176.27 138.938 172.558 134.298 172.558 126.743C172.558 118.878 176.358 114.504 182.279 114.504C185.106 114.504 187.316 115.564 188.774 117.553V115.167H194.429V139.6C194.429 146.007 190.011 149.277 184.134 149.277C178.302 149.277 174.06 146.582 173.221 140.97H178.921C179.274 143.489 181.307 144.814 184.046 144.814C186.874 144.814 188.774 143.444 188.774 139.689V135.712C187.227 137.833 185.018 138.938 182.279 138.938ZM183.56 134.254C186.962 134.254 188.774 131.603 188.774 126.743C188.774 121.927 186.874 119.187 183.56 119.187C180.202 119.187 178.39 121.838 178.39 126.743C178.39 131.559 180.202 134.254 183.56 134.254Z" fill="black" fill-opacity="0.88"/>
<path d="M201.616 114.511V108.399H199.278V107H205.666V108.399H203.328V114.511H201.616ZM206.568 114.511V107H208.814L210.508 111.529L210.821 112.633L211.115 111.529L212.809 107H215V114.511H213.306L213.398 108.896L212.828 110.756L211.392 114.511H210.177L208.722 110.719L208.17 108.933L208.262 114.511H206.568Z" fill="black" fill-opacity="0.88"/>
</svg>
